<svg width="189" height="93" viewBox="0 0 189 93" fill="none" xmlns="http://www.w3.org/2000/svg">
<rect width="188.897" height="92.2621" rx="10.9315" fill="#2597E0"/>
<g clip-path="url(#clip0_4349_13763)">
<rect width="188.897" height="92.2621" rx="10.9315" fill="#2597E0"/>
<path d="M-34.8614 60.5806C-30.7292 43.3936 -22.3175 28.6062 -9.61144 16.1926C3.12124 3.79364 19.0575 -4.97973 38.239 -10.1387C61.7383 -16.4589 83.6112 -15.8287 103.878 -8.2537C120.957 -1.86856 135.002 8.7087 145.987 23.4634C149.071 27.6005 146.938 33.4239 141.893 34.7806L103.157 45.199C100.603 45.8857 97.8192 45.2405 95.9299 43.4396C90.2945 38.072 83.8665 34.4423 76.6548 32.5046C68.1874 30.2512 59.3556 30.3611 50.1385 32.8401C35.275 36.8377 24.7189 45.1007 18.4288 57.6402C12.1387 70.1797 11.4445 84.8737 16.3404 101.702C21.2362 118.53 29.7591 130.745 41.9031 138.327C54.0471 145.908 67.5301 147.706 82.3936 143.708C91.6106 141.229 99.22 136.917 105.242 130.767C110.362 125.512 113.898 119.203 115.819 111.803C116.456 109.301 118.494 107.38 121.048 106.694L159.784 96.2752C164.829 94.9185 169.801 98.8526 169.391 103.907C167.942 122.007 161.625 137.995 150.468 151.887C137.222 168.367 118.852 179.777 95.3319 186.103C76.1504 191.262 57.7719 191.717 40.217 187.464C22.6621 183.211 7.48246 174.813 -5.28049 162.257C-18.0642 149.707 -27.1977 133.931 -32.7342 114.901C-38.2707 95.8705 -38.9728 77.7619 -34.8614 60.5806Z" fill="white" fill-opacity="0.2"/>
<path d="M170.584 -85.0591C156.751 -96.6473 140.916 -103.878 123.053 -106.765C105.176 -109.625 86.917 -107.741 68.2353 -101.1C45.3481 -92.9638 28.0187 -80.1163 16.2269 -62.55C6.29166 -47.7461 1.37062 -31.2581 1.47644 -13.1127C1.50313 -8.02296 6.78388 -4.51016 11.6969 -6.25668L49.4244 -19.6682C51.9113 -20.5523 53.7724 -22.6453 54.2037 -25.1693C55.4926 -32.6949 58.4838 -39.2601 63.1419 -44.897C68.6244 -51.4979 75.844 -56.3904 84.821 -59.5815C99.2973 -64.7277 112.888 -63.9899 125.632 -57.3826C138.377 -50.7753 147.905 -39.2669 154.207 -22.877C160.51 -6.4872 161.06 8.21237 155.851 21.202C150.642 34.1917 140.819 43.2524 126.343 48.3985C117.366 51.5897 108.573 52.3896 99.9427 50.8055C92.5911 49.4378 85.8775 46.3226 79.8069 41.4132C77.764 39.7463 74.942 39.3404 72.4552 40.2245L34.7277 53.636C29.8146 55.3826 28.1882 61.3731 31.6041 65.2358C43.8207 79.0759 58.6909 88.4613 76.2022 93.4189C96.9848 99.2936 118.823 98.1728 141.731 90.0295C160.413 83.3884 175.575 73.3913 187.197 60.0454C198.819 46.6995 205.988 31.3357 208.663 13.9685C211.359 -3.40584 209.13 -21.3334 202.003 -39.8679C194.876 -58.4024 184.396 -73.4637 170.584 -85.0591Z" fill="white" fill-opacity="0.2"/>
</g>
<defs>
<clipPath id="clip0_4349_13763">
<rect width="188.897" height="92.2621" rx="10.9315" fill="white"/>
</clipPath>
</defs>
</svg>
