<svg width="301" height="24" viewBox="0 0 301 24" fill="none" xmlns="http://www.w3.org/2000/svg">
<path d="M1.50119 5.82503C2.50362 4.01195 3.89917 2.59932 5.69028 1.58468C7.48385 0.572497 9.51328 0.0664062 11.7835 0.0664062C14.5648 0.0664062 16.9455 0.800975 18.9283 2.27011C20.599 3.50831 21.8029 5.12731 22.5375 7.12465C22.7439 7.68479 22.3238 8.27687 21.7267 8.27687H17.1421C16.8399 8.27687 16.5549 8.11964 16.405 7.85922C15.9578 7.08289 15.3682 6.47853 14.6385 6.04122C13.781 5.53022 12.808 5.27472 11.7172 5.27472C9.95799 5.27472 8.53542 5.88645 7.44454 7.10991C6.35365 8.33337 5.80821 9.96957 5.80821 12.016C5.80821 14.0625 6.35365 15.6987 7.44454 16.9222C8.53542 18.1456 9.95799 18.7574 11.7172 18.7574C12.808 18.7574 13.781 18.5019 14.6385 17.9909C15.3682 17.5536 15.9578 16.9492 16.405 16.1729C16.5549 15.91 16.8399 15.7552 17.1421 15.7552H21.7267C22.3238 15.7552 22.7439 16.3498 22.5375 16.9074C21.8004 18.9048 20.5965 20.5164 18.9283 21.7448C16.948 23.2016 14.5672 23.9313 11.7835 23.9313C9.51328 23.9313 7.48139 23.4252 5.69028 22.413C3.89917 21.4008 2.50117 19.9931 1.50119 18.1899C0.498759 16.3866 0 14.3303 0 12.016C0 9.70178 0.501216 7.63811 1.50119 5.82503Z" fill="#64E9CC"/>
<path d="M35.8689 22.464C34.0336 21.4396 32.5742 20.0097 31.4956 18.1745C30.417 16.3393 29.8765 14.2757 29.8765 11.9835C29.8765 9.69138 30.417 7.63262 31.4956 5.80971C32.5742 3.98435 34.0336 2.56189 35.8689 1.53742C37.7043 0.512957 39.7239 0.00195312 41.9278 0.00195312C44.1316 0.00195312 46.1513 0.512957 47.9866 1.53742C49.8219 2.56189 51.2691 3.98435 52.3255 5.80971C53.382 7.63508 53.9103 9.69384 53.9103 11.9835C53.9103 14.2732 53.3771 16.3393 52.3083 18.1745C51.2396 20.0097 49.7924 21.4396 47.9694 22.464C46.1439 23.4885 44.1316 23.9995 41.9278 23.9995C39.7239 23.9995 37.7043 23.4885 35.8689 22.464ZM46.4166 16.9216C47.5394 15.676 48.1021 14.03 48.1021 11.9811C48.1021 9.93214 47.5394 8.25909 46.4166 7.02335C45.2938 5.7876 43.795 5.17096 41.9278 5.17096C40.0605 5.17096 38.5274 5.78269 37.4045 7.00615C36.2793 8.22961 35.7191 9.88792 35.7191 11.9786C35.7191 14.0693 36.2817 15.7006 37.4045 16.9363C38.5274 18.1721 40.0359 18.7887 41.9278 18.7887C43.8196 18.7887 45.2938 18.1672 46.4166 16.9191V16.9216Z" fill="#64E9CC"/>
<path d="M81.6247 23.7665H77.239C76.9491 23.7665 76.6813 23.6215 76.5216 23.3808L68.8068 11.7038C68.3375 10.9914 67.2295 11.3255 67.2295 12.178V22.9066C67.2295 23.3808 66.8437 23.7665 66.3695 23.7665H62.3819C61.9077 23.7665 61.522 23.3808 61.522 22.9066V1.19385C61.522 0.719694 61.9077 0.333984 62.3819 0.333984H66.7651C67.055 0.333984 67.3253 0.478933 67.485 0.722151L75.1973 12.4531C75.6666 13.1656 76.7771 12.8339 76.7771 11.9814V1.19385C76.7771 0.719694 77.1629 0.333984 77.6371 0.333984H81.6247C82.0989 0.333984 82.4846 0.719694 82.4846 1.19385V22.9042C82.4846 23.3783 82.0989 23.764 81.6247 23.764V23.7665Z" fill="#64E9CC"/>
<path d="M94.9365 23.1647C93.5778 22.6095 92.4943 21.784 91.681 20.6957C91.0471 19.8456 90.6491 18.8629 90.482 17.7427C90.4034 17.2243 90.8088 16.755 91.3346 16.755H95.7546C96.1404 16.755 96.4868 17.0081 96.5826 17.3815C96.73 17.949 96.9929 18.4035 97.3738 18.7426C97.8848 19.1995 98.5531 19.428 99.3762 19.428C100.199 19.428 100.89 19.2339 101.379 18.8433C101.868 18.4551 102.113 17.9146 102.113 17.2243C102.113 16.6469 101.919 16.1679 101.528 15.7895C101.14 15.4112 100.661 15.0992 100.094 14.856C99.526 14.6103 98.7202 14.3327 97.6735 14.0207C96.16 13.5539 94.9242 13.0871 93.9684 12.6179C93.0102 12.1511 92.1872 11.4607 91.4992 10.5493C90.8088 9.63783 90.4648 8.44631 90.4648 6.97717C90.4648 4.79558 91.2535 3.08814 92.8358 1.85239C94.4156 0.616644 96.4745 0 99.0101 0C101.546 0 103.673 0.616644 105.253 1.85239C106.587 2.89405 107.398 4.28212 107.686 6.01413C107.772 6.53496 107.364 7.00911 106.835 7.00911H102.342C101.954 7.00911 101.617 6.7487 101.514 6.37527C101.383 5.9134 101.14 5.52769 100.782 5.22305C100.27 4.78821 99.612 4.57201 98.8111 4.57201C98.1207 4.57201 97.5654 4.75627 97.1428 5.12233C96.7202 5.48838 96.5089 6.01904 96.5089 6.70693C96.5089 7.46361 96.8652 8.05323 97.5777 8.47579C98.2902 8.89835 99.4032 9.35531 100.917 9.8442C102.43 10.3552 103.659 10.8466 104.605 11.3133C105.55 11.7801 106.369 12.4606 107.059 13.35C107.749 14.2393 108.093 15.3866 108.093 16.787C108.093 18.1873 107.754 19.3346 107.076 20.4254C106.398 21.5162 105.413 22.3835 104.123 23.0296C102.833 23.6757 101.307 23.9975 99.5506 23.9975C97.7939 23.9975 96.3001 23.7199 94.9438 23.1622L94.9365 23.1647Z" fill="#64E9CC"/>
<path d="M120.781 0.333984C121.255 0.333984 121.641 0.719694 121.641 1.19385V14.3522C121.641 15.755 121.985 16.8335 122.675 17.5902C123.365 18.3469 124.378 18.7252 125.712 18.7252C127.046 18.7252 128.07 18.3469 128.783 17.5902C129.495 16.8335 129.852 15.755 129.852 14.3522V1.19385C129.852 0.719694 130.237 0.333984 130.712 0.333984H134.699C135.173 0.333984 135.559 0.719694 135.559 1.19385V14.3203C135.559 16.411 135.114 18.1823 134.225 19.6268C133.336 21.0739 132.139 22.1647 130.635 22.8968C129.134 23.6314 127.459 23.9974 125.611 23.9974C123.763 23.9974 122.112 23.6363 120.653 22.9115C119.196 22.1892 118.044 21.0984 117.198 19.6416C116.353 18.1847 115.931 16.4085 115.931 14.3178V1.19385C115.931 0.719694 116.316 0.333984 116.791 0.333984H120.778H120.781Z" fill="#64E9CC"/>
<path d="M144.542 5.82503C145.544 4.01195 146.94 2.59932 148.731 1.58468C150.522 0.572497 152.554 0.0664062 154.824 0.0664062C157.605 0.0664062 159.986 0.800975 161.969 2.27011C163.64 3.50831 164.843 5.12731 165.578 7.12465C165.784 7.68479 165.364 8.27687 164.767 8.27687H160.183C159.88 8.27687 159.595 8.11964 159.446 7.85922C158.998 7.08289 158.409 6.47853 157.679 6.04122C156.822 5.53022 155.849 5.27472 154.758 5.27472C152.999 5.27472 151.576 5.88645 150.485 7.10991C149.394 8.33337 148.849 9.96957 148.849 12.016C148.849 14.0625 149.394 15.6987 150.485 16.9222C151.576 18.1456 152.999 18.7574 154.758 18.7574C155.849 18.7574 156.822 18.5019 157.679 17.9909C158.409 17.5536 158.998 16.9492 159.446 16.1729C159.595 15.91 159.88 15.7552 160.183 15.7552H164.767C165.364 15.7552 165.784 16.3498 165.578 16.9074C164.841 18.9048 163.637 20.5164 161.969 21.7448C159.989 23.2016 157.608 23.9313 154.824 23.9313C152.554 23.9313 150.522 23.4252 148.731 22.413C146.94 21.4008 145.542 19.9931 144.542 18.1899C143.539 16.3866 143.041 14.3303 143.041 12.016C143.041 9.70178 143.542 7.63811 144.542 5.82503Z" fill="#2597E0"/>
<path d="M178.907 22.464C177.072 21.4396 175.612 20.0097 174.534 18.1745C173.455 16.3393 172.915 14.2757 172.915 11.9835C172.915 9.69138 173.455 7.63262 174.534 5.80971C175.612 3.98435 177.072 2.56189 178.907 1.53742C180.742 0.512957 182.762 0.00195312 184.966 0.00195312C187.17 0.00195312 189.189 0.512957 191.025 1.53742C192.86 2.56189 194.307 3.98435 195.364 5.80971C196.42 7.63508 196.948 9.69384 196.948 11.9835C196.948 14.2732 196.415 16.3393 195.346 18.1745C194.278 20.0097 192.831 21.4396 191.007 22.464C189.182 23.4885 187.17 23.9995 184.966 23.9995C182.762 23.9995 180.742 23.4885 178.907 22.464ZM189.455 16.9216C190.577 15.676 191.14 14.03 191.14 11.9811C191.14 9.93214 190.577 8.25909 189.455 7.02335C188.329 5.7876 186.833 5.17096 184.966 5.17096C183.099 5.17096 181.565 5.78269 180.443 7.00615C179.317 8.22961 178.757 9.88792 178.757 11.9786C178.757 14.0693 179.32 15.7006 180.443 16.9363C181.565 18.1721 183.074 18.7887 184.966 18.7887C186.858 18.7887 188.332 18.1672 189.455 16.9191V16.9216Z" fill="#2597E0"/>
<path d="M216.265 23.3193L211.882 15.3644C211.729 15.0892 211.442 14.9197 211.127 14.9197C210.653 14.9197 210.268 15.3054 210.268 15.7796V22.9042C210.268 23.3783 209.882 23.764 209.408 23.764H205.42C204.946 23.764 204.56 23.3783 204.56 22.9042V1.19385C204.56 0.719694 204.946 0.333984 205.42 0.333984H214.14C215.987 0.333984 217.562 0.655819 218.862 1.30194C220.164 1.94807 221.137 2.8325 221.783 3.95524C222.429 5.08043 222.751 6.33091 222.751 7.70915C222.751 9.26673 222.311 10.6573 221.432 11.8807C220.719 12.8708 219.734 13.6299 218.476 14.1532C217.997 14.3522 217.803 14.9295 218.063 15.3791L222.196 22.4693C222.53 23.0417 222.117 23.7616 221.452 23.7616H217.014C216.7 23.7616 216.412 23.592 216.26 23.3169L216.265 23.3193ZM210.27 10.021C210.27 10.4951 210.656 10.8808 211.13 10.8808H213.808C214.855 10.8808 215.638 10.6253 216.162 10.1143C216.685 9.60331 216.945 8.87856 216.945 7.945C216.945 7.01143 216.683 6.35548 216.162 5.84202C215.638 5.33102 214.855 5.07551 213.808 5.07551H211.13C210.656 5.07551 210.27 5.46122 210.27 5.93538V10.0234V10.021Z" fill="#2597E0"/>
<path d="M250.868 23.7665H246.483C246.193 23.7665 245.925 23.6215 245.765 23.3808L238.05 11.7038C237.581 10.9914 236.473 11.3255 236.473 12.178V22.9066C236.473 23.3808 236.087 23.7665 235.613 23.7665H231.626C231.151 23.7665 230.766 23.3808 230.766 22.9066V1.19385C230.766 0.719694 231.151 0.333984 231.626 0.333984H236.009C236.299 0.333984 236.569 0.478933 236.729 0.722151L244.441 12.4531C244.91 13.1656 246.021 12.8339 246.021 11.9814V1.19385C246.021 0.719694 246.407 0.333984 246.881 0.333984H250.868C251.343 0.333984 251.728 0.719694 251.728 1.19385V22.9042C251.728 23.3783 251.343 23.764 250.868 23.764V23.7665Z" fill="#2597E0"/>
<path d="M266.016 5.76586V8.78521C266.016 9.25936 266.401 9.64507 266.876 9.64507H272.799C273.273 9.64507 273.659 10.0308 273.659 10.5049V13.1902C273.659 13.6643 273.273 14.05 272.799 14.05H266.876C266.401 14.05 266.016 14.4357 266.016 14.9099V18.3297C266.016 18.8038 266.401 19.1895 266.876 19.1895H273.802C274.276 19.1895 274.662 19.5753 274.662 20.0494V22.9017C274.662 23.3759 274.276 23.7616 273.802 23.7616H261.168C260.694 23.7616 260.308 23.3759 260.308 22.9017V1.19385C260.308 0.719694 260.694 0.333984 261.168 0.333984H273.802C274.276 0.333984 274.662 0.719694 274.662 1.19385V4.04613C274.662 4.52029 274.276 4.906 273.802 4.906H266.876C266.401 4.906 266.016 5.29171 266.016 5.76586Z" fill="#2597E0"/>
<path d="M294.511 23.3193L290.128 15.3644C289.975 15.0892 289.688 14.9197 289.374 14.9197C288.899 14.9197 288.514 15.3054 288.514 15.7796V22.9042C288.514 23.3783 288.128 23.764 287.654 23.764H283.666C283.192 23.764 282.806 23.3783 282.806 22.9042V1.19385C282.806 0.719694 283.192 0.333984 283.666 0.333984H292.386C294.233 0.333984 295.808 0.655819 297.108 1.30194C298.41 1.94807 299.383 2.8325 300.029 3.95524C300.675 5.08043 300.997 6.33091 300.997 7.70915C300.997 9.26673 300.558 10.6573 299.678 11.8807C298.965 12.8708 297.98 13.6299 296.722 14.1532C296.243 14.3522 296.049 14.9295 296.309 15.3791L300.442 22.4693C300.776 23.0417 300.363 23.7616 299.698 23.7616H295.26C294.946 23.7616 294.658 23.592 294.506 23.3169L294.511 23.3193ZM288.514 10.021C288.514 10.4951 288.899 10.8808 289.374 10.8808H292.052C293.098 10.8808 293.882 10.6253 294.405 10.1143C294.929 9.60331 295.189 8.87856 295.189 7.945C295.189 7.01143 294.926 6.35548 294.405 5.84202C293.882 5.33102 293.098 5.07551 292.052 5.07551H289.374C288.899 5.07551 288.514 5.46122 288.514 5.93538V10.0234V10.021Z" fill="#2597E0"/>
</svg>
