<svg width="1512" height="423" viewBox="0 0 1512 423" fill="none" xmlns="http://www.w3.org/2000/svg">
<rect width="1512" height="423" fill="#01C7B2"/>
<g opacity="0.05" clip-path="url(#clip0_0_1)">
<path d="M1077.88 62.21C1085.14 49.0716 1095.26 38.8351 1108.23 31.4825C1121.23 24.1478 1135.94 20.4805 1152.39 20.4805C1172.54 20.4805 1189.79 25.8035 1204.16 36.4495C1216.27 45.4221 1224.99 57.1541 1230.32 71.6277C1231.81 75.6867 1228.77 79.9772 1224.44 79.9772H1191.22C1189.03 79.9772 1186.96 78.8378 1185.88 76.9507C1182.64 71.325 1178.36 66.9456 1173.08 63.7767C1166.86 60.0737 1159.81 58.2222 1151.91 58.2222C1139.16 58.2222 1128.85 62.6551 1120.95 71.5209C1113.04 80.3866 1109.09 92.2432 1109.09 107.073C1109.09 121.903 1113.04 133.759 1120.95 142.625C1128.85 151.491 1139.16 155.924 1151.91 155.924C1159.81 155.924 1166.86 154.072 1173.08 150.369C1178.36 147.2 1182.64 142.821 1185.88 137.195C1186.96 135.29 1189.03 134.169 1191.22 134.169H1224.44C1228.77 134.169 1231.81 138.477 1230.32 142.518C1224.98 156.992 1216.25 168.67 1204.16 177.572C1189.81 188.129 1172.56 193.416 1152.39 193.416C1135.94 193.416 1121.21 189.749 1108.23 182.414C1095.26 175.079 1085.12 164.878 1077.88 151.811C1070.61 138.744 1067 123.843 1067 107.073C1067 90.3027 1070.63 75.3484 1077.88 62.21Z" fill="white"/>
<path d="M1326.92 182.788C1313.62 175.364 1303.05 165.003 1295.23 151.704C1287.42 138.406 1283.5 123.451 1283.5 106.841C1283.5 90.2315 1287.42 75.3128 1295.23 62.1032C1303.05 48.8758 1313.62 38.568 1326.92 31.1443C1340.22 23.7205 1354.86 20.0176 1370.83 20.0176C1386.8 20.0176 1401.43 23.7205 1414.73 31.1443C1428.03 38.568 1438.52 48.8758 1446.18 62.1032C1453.83 75.3306 1457.66 90.2493 1457.66 106.841C1457.66 123.434 1453.8 138.406 1446.05 151.704C1438.31 165.003 1427.82 175.364 1414.61 182.788C1401.38 190.212 1386.8 193.915 1370.83 193.915C1354.86 193.915 1340.22 190.212 1326.92 182.788ZM1403.36 142.625C1411.49 133.599 1415.57 121.671 1415.57 106.824C1415.57 91.9762 1411.49 79.8525 1403.36 70.8978C1395.22 61.943 1384.36 57.4745 1370.83 57.4745C1357.3 57.4745 1346.19 61.9074 1338.05 70.7731C1329.9 79.6389 1325.84 91.6557 1325.84 106.806C1325.84 121.956 1329.91 133.777 1338.05 142.732C1346.19 151.686 1357.12 156.155 1370.83 156.155C1384.54 156.155 1395.22 151.651 1403.36 142.607V142.625Z" fill="white"/>
<path d="M1230.88 285.208C1238.14 272.07 1248.26 261.833 1261.23 254.481C1274.21 247.146 1288.94 243.479 1305.39 243.479C1325.54 243.479 1342.79 248.802 1357.16 259.448C1369.27 268.42 1377.99 280.152 1383.32 294.626C1384.81 298.685 1381.77 302.975 1377.44 302.975H1344.22C1342.03 302.975 1339.96 301.836 1338.88 299.949C1335.64 294.323 1331.36 289.944 1326.08 286.775C1319.86 283.072 1312.81 281.22 1304.91 281.22C1292.16 281.22 1281.85 285.653 1273.95 294.519C1266.04 303.385 1262.09 315.241 1262.09 330.071C1262.09 344.901 1266.04 356.757 1273.95 365.623C1281.85 374.489 1292.16 378.922 1304.91 378.922C1312.81 378.922 1319.86 377.07 1326.08 373.367C1331.36 370.198 1335.64 365.819 1338.88 360.193C1339.96 358.288 1342.03 357.167 1344.22 357.167H1377.44C1381.77 357.167 1384.81 361.475 1383.32 365.516C1377.98 379.99 1369.25 391.668 1357.16 400.57C1342.81 411.127 1325.56 416.414 1305.39 416.414C1288.94 416.414 1274.21 412.747 1261.23 405.412C1248.26 398.077 1238.12 387.876 1230.88 374.809C1223.61 361.742 1220 346.841 1220 330.071C1220 313.301 1223.63 298.346 1230.88 285.208Z" fill="white"/>
<path d="M1479.9 405.786C1466.6 398.362 1456.03 388.001 1448.21 374.702C1440.4 361.404 1436.48 346.449 1436.48 329.839C1436.48 313.23 1440.4 298.311 1448.21 285.101C1456.03 271.874 1466.6 261.566 1479.9 254.142C1493.2 246.719 1507.84 243.016 1523.81 243.016C1539.78 243.016 1554.41 246.719 1567.71 254.142C1581.01 261.566 1591.5 271.874 1599.16 285.101C1606.81 298.329 1610.64 313.247 1610.64 329.839C1610.64 346.432 1606.78 361.404 1599.03 374.702C1591.29 388.001 1580.8 398.362 1567.59 405.786C1554.36 413.21 1539.78 416.913 1523.81 416.913C1507.84 416.913 1493.2 413.21 1479.9 405.786ZM1556.34 365.623C1564.47 356.597 1568.55 344.669 1568.55 329.822C1568.55 314.974 1564.47 302.851 1556.34 293.896C1548.18 284.941 1537.34 280.473 1523.81 280.473C1510.28 280.473 1499.17 284.905 1491.03 293.771C1482.88 302.637 1478.82 314.654 1478.82 329.804C1478.82 344.954 1482.9 356.775 1491.03 365.73C1499.17 374.685 1510.1 379.153 1523.81 379.153C1537.52 379.153 1548.2 374.649 1556.34 365.605V365.623Z" fill="white"/>
</g>
<g opacity="0.05">
<path d="M32.8783 62.21C40.1424 49.0716 50.2551 38.8351 63.2343 31.4825C76.2313 24.1478 90.9375 20.4805 107.388 20.4805C127.543 20.4805 144.795 25.8035 159.163 36.4495C171.27 45.4221 179.994 57.1541 185.317 71.6277C186.813 75.6867 183.768 79.9772 179.442 79.9772H146.219C144.029 79.9772 141.964 78.8378 140.878 76.9507C137.638 71.325 133.365 66.9456 128.077 63.7767C121.863 60.0737 114.813 58.2222 106.908 58.2222C94.16 58.2222 83.8515 62.6551 75.9464 71.5209C68.0414 80.3866 64.0889 92.2432 64.0889 107.073C64.0889 121.903 68.0414 133.759 75.9464 142.625C83.8515 151.491 94.16 155.924 106.908 155.924C114.813 155.924 121.863 154.072 128.077 150.369C133.365 147.2 137.638 142.821 140.878 137.195C141.964 135.29 144.029 134.169 146.219 134.169H179.442C183.768 134.169 186.813 138.477 185.317 142.518C179.976 156.992 171.252 168.67 159.163 177.572C144.813 188.129 127.561 193.416 107.388 193.416C90.9375 193.416 76.2135 189.749 63.2343 182.414C50.2551 175.079 40.1246 164.878 32.8783 151.811C25.6142 138.744 22 123.843 22 107.073C22 90.3027 25.632 75.3484 32.8783 62.21Z" fill="white"/>
<path d="M281.922 182.788C268.623 175.364 258.047 165.003 250.231 151.704C242.415 138.406 238.498 123.451 238.498 106.841C238.498 90.2315 242.415 75.3128 250.231 62.1032C258.047 48.8758 268.623 38.568 281.922 31.1443C295.222 23.7205 309.857 20.0176 325.827 20.0176C341.797 20.0176 356.432 23.7205 369.732 31.1443C383.032 38.568 393.518 48.8758 401.174 62.1032C408.83 75.3306 412.658 90.2493 412.658 106.841C412.658 123.434 408.794 138.406 401.05 151.704C393.305 165.003 382.818 175.364 369.607 182.788C356.379 190.212 341.797 193.915 325.827 193.915C309.857 193.915 295.222 190.212 281.922 182.788ZM358.355 142.625C366.492 133.599 370.569 121.671 370.569 106.824C370.569 91.9762 366.492 79.8525 358.355 70.8978C350.219 61.943 339.358 57.4745 325.827 57.4745C312.296 57.4745 301.186 61.9074 293.05 70.7731C284.896 79.6389 280.836 91.6557 280.836 106.806C280.836 121.956 284.913 133.777 293.05 142.732C301.186 151.686 312.118 156.155 325.827 156.155C339.536 156.155 350.219 151.651 358.355 142.607V142.625Z" fill="white"/>
<path d="M613.488 192.224H581.708C579.607 192.224 577.666 191.174 576.509 189.429L520.604 104.813C517.204 99.6501 509.174 102.071 509.174 108.249V185.993C509.174 189.429 506.379 192.224 502.942 192.224H474.046C470.61 192.224 467.815 189.429 467.815 185.993V28.6528C467.815 25.2169 470.61 22.4219 474.046 22.4219H505.809C507.91 22.4219 509.868 23.4722 511.026 25.2347L566.913 110.243C570.313 115.405 578.361 113.002 578.361 106.825V28.6528C578.361 25.2169 581.156 22.4219 584.592 22.4219H613.488C616.924 22.4219 619.72 25.2169 619.72 28.6528V185.975C619.72 189.411 616.924 192.206 613.488 192.206V192.224Z" fill="white"/>
<path d="M709.95 187.862C700.105 183.838 692.253 177.857 686.36 169.97C681.766 163.81 678.882 156.689 677.671 148.571C677.102 144.815 680.039 141.415 683.849 141.415H715.879C718.674 141.415 721.185 143.248 721.879 145.954C722.947 150.067 724.852 153.36 727.612 155.817C731.315 159.128 736.158 160.784 742.122 160.784C748.087 160.784 753.09 159.377 756.633 156.547C760.176 153.734 761.956 149.817 761.956 144.815C761.956 140.631 760.55 137.16 757.719 134.418C754.906 131.676 751.434 129.416 747.321 127.653C743.208 125.873 737.369 123.861 729.784 121.6C718.817 118.218 709.861 114.835 702.935 111.435C695.992 108.052 690.028 103.05 685.042 96.4449C680.039 89.8401 677.547 81.2057 677.547 70.5597C677.547 54.7509 683.262 42.378 694.728 33.4233C706.176 24.4685 721.096 20 739.47 20C757.843 20 773.262 24.4685 784.71 33.4233C794.377 40.9716 800.253 51.0301 802.336 63.5811C802.959 67.3552 800.003 70.7912 796.176 70.7912H763.612C760.799 70.7912 758.36 68.9041 757.612 66.1981C756.668 62.8511 754.906 60.0561 752.306 57.8486C748.603 54.6975 743.832 53.1309 738.027 53.1309C733.024 53.1309 729.001 54.4661 725.938 57.1187C722.876 59.7713 721.345 63.6167 721.345 68.6014C721.345 74.0847 723.927 78.3573 729.09 81.4194C734.253 84.4815 742.318 87.7928 753.286 91.3355C764.253 95.0385 773.155 98.599 780.009 101.982C786.864 105.364 792.793 110.295 797.796 116.74C802.799 123.185 805.291 131.498 805.291 141.646C805.291 151.794 802.834 160.107 797.92 168.012C793.006 175.916 785.867 182.201 776.52 186.883C767.173 191.565 756.116 193.897 743.386 193.897C730.656 193.897 719.832 191.885 710.004 187.844L709.95 187.862Z" fill="white"/>
<path d="M897.232 22.4219C900.668 22.4219 903.464 25.2169 903.464 28.6528V124.004C903.464 134.17 905.956 141.985 910.959 147.468C915.962 152.951 923.297 155.693 932.965 155.693C942.633 155.693 950.057 152.951 955.22 147.468C960.383 141.985 962.965 134.17 962.965 124.004V28.6528C962.965 25.2169 965.76 22.4219 969.196 22.4219H998.092C1001.53 22.4219 1004.32 25.2169 1004.32 28.6528V123.773C1004.32 138.923 1001.1 151.759 994.656 162.227C988.211 172.712 979.541 180.617 968.645 185.922C957.766 191.245 945.624 193.898 932.235 193.898C918.846 193.898 906.882 191.281 896.306 186.029C885.749 180.795 877.398 172.89 871.274 162.333C865.149 151.776 862.087 138.905 862.087 123.755V28.6528C862.087 25.2169 864.882 22.4219 868.318 22.4219H897.214H897.232Z" fill="white"/>
<path d="M32.8783 285.208C40.1424 272.07 50.2551 261.833 63.2343 254.481C76.2135 247.146 90.9375 243.479 107.389 243.479C127.543 243.479 144.795 248.802 159.163 259.448C171.27 268.42 179.994 280.152 185.317 294.626C186.813 298.685 183.768 302.975 179.442 302.975H146.219C144.029 302.975 141.964 301.836 140.878 299.949C137.638 294.323 133.365 289.944 128.077 286.775C121.863 283.072 114.813 281.22 106.908 281.22C94.16 281.22 83.8514 285.653 75.9464 294.519C68.0414 303.385 64.0889 315.241 64.0889 330.071C64.0889 344.901 68.0414 356.757 75.9464 365.623C83.8514 374.489 94.16 378.922 106.908 378.922C114.813 378.922 121.863 377.07 128.077 373.367C133.365 370.198 137.638 365.819 140.878 360.193C141.964 358.288 144.029 357.167 146.219 357.167H179.442C183.768 357.167 186.813 361.475 185.317 365.516C179.976 379.99 171.252 391.668 159.163 400.57C144.813 411.127 127.561 416.414 107.389 416.414C90.9375 416.414 76.2135 412.747 63.2343 405.412C50.2551 398.077 40.1246 387.876 32.8783 374.809C25.6142 361.742 22 346.841 22 330.071C22 313.301 25.632 298.346 32.8783 285.208Z" fill="white"/>
<path d="M281.905 405.786C268.605 398.362 258.029 388.001 250.213 374.702C242.397 361.404 238.48 346.449 238.48 329.839C238.48 313.23 242.397 298.311 250.213 285.101C258.029 271.874 268.605 261.566 281.905 254.142C295.204 246.719 309.839 243.016 325.81 243.016C341.78 243.016 356.415 246.719 369.714 254.142C383.014 261.566 393.501 271.874 401.157 285.101C408.812 298.329 412.64 313.247 412.64 329.839C412.64 346.432 408.777 361.404 401.032 374.702C393.287 388.001 382.8 398.362 369.59 405.786C356.361 413.21 341.78 416.913 325.81 416.913C309.839 416.913 295.204 413.21 281.905 405.786ZM358.338 365.623C366.474 356.597 370.551 344.669 370.551 329.822C370.551 314.974 366.474 302.851 358.338 293.896C350.183 284.941 339.341 280.473 325.81 280.473C312.278 280.473 301.169 284.905 293.032 293.771C284.878 302.637 280.819 314.654 280.819 329.804C280.819 344.954 284.896 356.775 293.032 365.73C301.169 374.685 312.1 379.153 325.81 379.153C339.519 379.153 350.201 374.649 358.338 365.605V365.623Z" fill="white"/>
<path d="M552.616 411.98L520.853 354.335C519.749 352.341 517.666 351.113 515.387 351.113C511.951 351.113 509.156 353.908 509.156 357.344V408.972C509.156 412.408 506.361 415.203 502.924 415.203H474.028C470.592 415.203 467.797 412.408 467.797 408.972V251.649C467.797 248.213 470.592 245.418 474.028 245.418H537.215C550.604 245.418 562.016 247.75 571.435 252.432C580.871 257.114 587.921 263.523 592.604 271.659C597.286 279.813 599.618 288.874 599.618 298.862C599.618 310.149 596.432 320.225 590.058 329.091C584.894 336.265 577.755 341.766 568.639 345.558C565.167 347 563.761 351.184 565.648 354.442L595.595 405.82C598.016 409.969 595.025 415.185 590.2 415.185H558.046C555.767 415.185 553.684 413.956 552.58 411.962L552.616 411.98ZM509.174 315.614C509.174 319.05 511.969 321.845 515.405 321.845H534.811C542.396 321.845 548.076 319.994 551.868 316.291C555.66 312.588 557.547 307.336 557.547 300.571C557.547 293.806 555.642 289.052 551.868 285.332C548.076 281.629 542.396 279.777 534.811 279.777H515.405C511.969 279.777 509.174 282.572 509.174 286.008V315.632V315.614Z" fill="white"/>
<path d="M803.369 415.22H771.588C769.487 415.22 767.547 414.17 766.389 412.425L710.485 327.809C707.084 322.646 699.054 325.067 699.054 331.245V408.989C699.054 412.425 696.259 415.22 692.823 415.22H663.927C660.491 415.22 657.695 412.425 657.695 408.989V251.649C657.695 248.213 660.491 245.418 663.927 245.418H695.689C697.79 245.418 699.749 246.468 700.906 248.231L756.793 333.239C760.194 338.402 768.241 335.998 768.241 329.821V251.649C768.241 248.213 771.036 245.418 774.473 245.418H803.369C806.805 245.418 809.6 248.213 809.6 251.649V408.972C809.6 412.407 806.805 415.203 803.369 415.203V415.22Z" fill="white"/>
<path d="M913.131 284.78V306.659C913.131 310.095 915.927 312.89 919.363 312.89H962.288C965.725 312.89 968.52 315.685 968.52 319.121V338.58C968.52 342.016 965.725 344.811 962.288 344.811H919.363C915.927 344.811 913.131 347.606 913.131 351.042V375.823C913.131 379.259 915.927 382.054 919.363 382.054H969.553C972.989 382.054 975.784 384.849 975.784 388.285V408.954C975.784 412.39 972.989 415.185 969.553 415.185H878.004C874.568 415.185 871.772 412.39 871.772 408.954V251.649C871.772 248.213 874.568 245.418 878.004 245.418H969.553C972.989 245.418 975.784 248.213 975.784 251.649V272.318C975.784 275.754 972.989 278.549 969.553 278.549H919.363C915.927 278.549 913.131 281.344 913.131 284.78Z" fill="white"/>
<path d="M1119.62 411.98L1087.86 354.335C1086.76 352.341 1084.67 351.113 1082.4 351.113C1078.96 351.113 1076.16 353.908 1076.16 357.344V408.972C1076.16 412.408 1073.37 415.203 1069.93 415.203H1041.04C1037.6 415.203 1034.81 412.408 1034.81 408.972V251.649C1034.81 248.213 1037.6 245.418 1041.04 245.418H1104.22C1117.61 245.418 1129.02 247.75 1138.44 252.432C1147.88 257.114 1154.93 263.523 1159.61 271.659C1164.29 279.813 1166.63 288.874 1166.63 298.862C1166.63 310.149 1163.44 320.225 1157.07 329.091C1151.9 336.265 1144.76 341.766 1135.65 345.558C1132.18 347 1130.77 351.184 1132.66 354.442L1162.6 405.82C1165.02 409.969 1162.03 415.185 1157.21 415.185H1125.05C1122.78 415.185 1120.69 413.956 1119.59 411.962L1119.62 411.98ZM1076.16 315.614C1076.16 319.05 1078.96 321.845 1082.4 321.845H1101.8C1109.39 321.845 1115.07 319.994 1118.86 316.291C1122.65 312.588 1124.54 307.336 1124.54 300.571C1124.54 293.806 1122.63 289.052 1118.86 285.332C1115.07 281.629 1109.39 279.777 1101.8 279.777H1082.4C1078.96 279.777 1076.16 282.572 1076.16 286.008V315.632V315.614Z" fill="white"/>
</g>
<defs>
<clipPath id="clip0_0_1">
<rect width="446" height="397" fill="white" transform="translate(1067 20)"/>
</clipPath>
</defs>
</svg>
