<svg width="13" height="15" viewBox="0 0 13 15" fill="none" xmlns="http://www.w3.org/2000/svg">
<path d="M0.563477 11.5646V5.86881C0.563477 3.36739 0.563477 2.11668 1.37006 1.33959C2.17664 0.5625 3.47481 0.5625 6.07114 0.5625C8.66748 0.5625 9.96565 0.5625 10.7722 1.33959C11.5788 2.11668 11.5788 3.36739 11.5788 5.86881V11.5646C11.5788 13.1521 11.5788 13.9458 11.0467 14.23C10.0164 14.7802 8.08365 12.9446 7.16579 12.3919C6.63347 12.0713 6.36732 11.9111 6.07114 11.9111C5.77497 11.9111 5.50882 12.0713 4.9765 12.3919C4.05864 12.9446 2.12591 14.7802 1.09555 14.23C0.563477 13.9458 0.563477 13.1521 0.563477 11.5646Z" stroke="#00C8B3" stroke-width="1.12657" stroke-linecap="round" stroke-linejoin="round"/>
</svg>
