<svg xmlns="http://www.w3.org/2000/svg" style="display:none">
  <symbol id="icon-login" viewBox="0 0 24 24">
    <path d="M15 3h4a2 2 0 0 1 2 2v14a2 2 0 0 1-2 2h-4"/>
    <polyline points="10 17 15 12 10 7"/>
    <line x1="15" y1="12" x2="3" y2="12"/>
  </symbol>

  <symbol id="icon-chevron-down" viewBox="0 0 24 24">
    <polyline points="6 9 12 15 18 9"/>
  </symbol>

  <symbol id="icon-chevron-right" viewBox="0 0 24 24">
    <polyline points="9 18 15 12 9 6"/>
  </symbol>

  <symbol id="icon-chevron-left" viewBox="0 0 24 24">
    <polyline points="15 18 9 12 15 6"/>
  </symbol>

  <symbol id="icon-search" viewBox="0 0 24 24">
    <circle cx="11" cy="11" r="8"/>
    <line x1="21" y1="21" x2="16.65" y2="16.65"/>
  </symbol>

  <symbol id="icon-cart" viewBox="0 0 24 24">
    <circle cx="9" cy="21" r="1"/>
    <circle cx="20" cy="21" r="1"/>
    <path d="M1 1h4l2.68 13.39a2 2 0 0 0 2 1.61h9.72a2 2 0 0 0 2-1.61L23 6H6"/>
  </symbol>

  <symbol id="icon-tag-cpu" viewBox="0 0 24 24">
    <rect x="4" y="4" width="16" height="16" rx="2" ry="2"/>
    <rect x="9" y="9" width="6" height="6"/>
    <line x1="9" y1="1" x2="9" y2="4"/>
    <line x1="15" y1="1" x2="15" y2="4"/>
    <line x1="9" y1="20" x2="9" y2="23"/>
    <line x1="15" y1="20" x2="15" y2="23"/>
    <line x1="20" y1="9" x2="23" y2="9"/>
    <line x1="1" y1="9" x2="4" y2="9"/>
    <line x1="1" y1="14" x2="4" y2="14"/>
  </symbol>

  <symbol id="icon-tag-clock" viewBox="0 0 24 24">
    <circle cx="12" cy="12" r="10"/>
    <polyline points="12 6 12 12 16 14"/>
  </symbol>

  <symbol id="icon-tag-shield" viewBox="0 0 24 24">
    <path d="M12 22s8-4 8-10V5l-8-3-8 3v7c0 6 8 10 8 10z"/>
  </symbol>

  <symbol id="icon-facebook" viewBox="0 0 24 24">
    <circle cx="12" cy="12" r="11" stroke="currentColor" stroke-width="1.5"/>
    <path d="M13.5 8.5H15V6.5H13C11.6 6.5 10.5 7.6 10.5 9V10.5H9V12.5H10.5V18H12.5V12.5H14L14.5 10.5H12.5V9C12.5 8.7 12.7 8.5 13 8.5H13.5Z" fill="currentColor"/>
  </symbol>

  <symbol id="icon-linkedin" viewBox="0 0 24 24">
    <circle cx="12" cy="12" r="11" stroke="currentColor" stroke-width="1.5"/>
    <rect x="7" y="10.5" width="2" height="6.5" fill="currentColor"/>
    <circle cx="8" cy="8.5" r="1" fill="currentColor"/>
    <path d="M11.5 10.5H13.5V11.3C13.9 10.8 14.5 10.5 15.2 10.5C16.8 10.5 17.5 11.5 17.5 13V17H15.5V13.5C15.5 12.8 15.2 12.3 14.5 12.3C13.8 12.3 13.5 12.8 13.5 13.5V17H11.5V10.5Z" fill="currentColor"/>
  </symbol>
</svg>
